<?xml version="1.0" encoding="UTF-8"?>
<svg width="40" height="40" viewBox="0 0 40 40" fill="none" xmlns="http://www.w3.org/2000/svg">
  <circle cx="20" cy="20" r="20" fill="#10B981" opacity="0.9"/>
  <path d="M25 14.1429C25 13.5357 24.4643 13 23.8571 13H11.1429C10.5357 13 10 13.5357 10 14.1429V24.7143C10 25.3214 10.5357 25.8571 11.1429 25.8571H11.7143V27C11.7143 27.6071 12.25 28.1429 12.8571 28.1429H14C14.6071 28.1429 15.1429 27.6071 15.1429 27V25.8571H19.8571V27C19.8571 27.6071 20.3929 28.1429 21 28.1429H22.1429C22.75 28.1429 23.2857 27.6071 23.2857 27V25.8571H23.8571C24.4643 25.8571 25 25.3214 25 24.7143V14.1429ZM14 22.4286C13.0714 22.4286 12.2857 21.6429 12.2857 20.7143C12.2857 19.7857 13.0714 19 14 19C14.9286 19 15.7143 19.7857 15.7143 20.7143C15.7143 21.6429 14.9286 22.4286 14 22.4286ZM21 22.4286C20.0714 22.4286 19.2857 21.6429 19.2857 20.7143C19.2857 19.7857 20.0714 19 21 19C21.9286 19 22.7143 19.7857 22.7143 20.7143C22.7143 21.6429 21.9286 22.4286 21 22.4286ZM12.2857 17.5714V15.2857H22.7143V17.5714H12.2857Z" fill="white"/>
  <path d="M28.4286 16.4286H26.1429V19.8571H29.5714L28.4286 16.4286Z" fill="white"/>
  <path d="M26.1429 21H30V24.7143C30 25.3214 29.4643 25.8571 28.8571 25.8571H26.1429V21Z" fill="white"/>
</svg>