<?xml version="1.0" encoding="UTF-8"?>
<svg width="40" height="40" viewBox="0 0 40 40" fill="none" xmlns="http://www.w3.org/2000/svg">
  <circle cx="20" cy="20" r="20" fill="#3B82F6" opacity="0.9"/>
  <path d="M12 20C12 22.2091 13.7909 24 16 24C18.2091 24 20 22.2091 20 20C20 17.7909 18.2091 16 16 16C13.7909 16 12 17.7909 12 20Z" fill="white"/>
  <path d="M26 16L30 24H22L26 16Z" fill="white"/>
  <path d="M16 27C12.13 27 9 28.07 9 29.5V30H23V29.5C23 28.07 19.87 27 16 27ZM26 27C25.71 27 25.38 27.02 25.03 27.05C25.02 27.05 25.02 27.05 25.01 27.05C26.19 27.63 27 28.5 27 29.5V30H31V29.5C31 28.07 28.76 27 26 27Z" fill="white"/>
</svg>