<svg width="48" height="48" viewBox="0 0 48 48" fill="none" xmlns="http://www.w3.org/2000/svg">
  <path d="M24 4.5C13.248 4.5 4.5 13.248 4.5 24C4.5 34.752 13.248 43.5 24 43.5C34.752 43.5 43.5 34.752 43.5 24C43.5 13.248 34.752 4.5 24 4.5Z" fill="#1E90FF"/>
  <path d="M31.5 19.5H27C26.602 19.5 26.221 19.342 25.939 19.061C25.658 18.779 25.5 18.398 25.5 18V16.5M25.5 16.5H16.5C15.704 16.5 14.941 16.816 14.379 17.379C13.816 17.941 13.5 18.704 13.5 19.5V31.5C13.5 32.296 13.816 33.059 14.379 33.621C14.941 34.184 15.704 34.5 16.5 34.5H31.5C32.296 34.5 33.059 34.184 33.621 33.621C34.184 33.059 34.5 32.296 34.5 31.5V19.5M25.5 16.5V13.5" stroke="white" stroke-width="2" stroke-linecap="round" stroke-linejoin="round"/>
  <path d="M19.5 22.5H28.5M19.5 27H24" stroke="white" stroke-width="2" stroke-linecap="round" stroke-linejoin="round"/>
</svg>